<svg width="201" height="42" viewBox="0 0 201 42" fill="none" xmlns="http://www.w3.org/2000/svg">
<path d="M25.074 28.3467C24.3584 28.8756 23.6429 29.3267 22.9273 29.7001C20.6562 30.9134 18.2451 31.5201 15.694 31.5201C14.1073 31.5201 12.5829 31.2867 11.1207 30.8201C9.19176 30.2601 7.43399 29.3267 5.84732 28.0201C4.26065 26.7134 2.96954 25.1267 1.97398 23.2601C0.791762 21.1134 0.200651 18.7334 0.200651 16.1201C0.200651 15.3112 0.231762 14.689 0.293985 14.2534C0.480651 12.5423 0.916207 10.9245 1.60065 9.40007C2.31621 7.84451 3.23398 6.47562 4.35398 5.2934C5.47398 4.11118 6.74954 3.11562 8.18065 2.30674C9.64287 1.49785 11.1984 0.937847 12.8473 0.626735C13.7807 0.440068 14.7451 0.346735 15.7407 0.346735C18.3229 0.346735 20.7807 1.00007 23.114 2.30674C24.8562 3.3334 26.4273 4.65562 27.8273 6.2734L24.6073 8.98007C23.0829 7.30007 21.4807 6.10229 19.8007 5.38673C18.4007 4.85785 16.9851 4.5934 15.554 4.5934C13.7184 4.5934 11.9762 5.02896 10.3273 5.90007C8.27399 6.98896 6.68732 8.66896 5.56732 10.9401C4.75843 12.4956 4.35398 14.1601 4.35398 15.9334C4.35398 16.929 4.49398 17.9245 4.77399 18.9201C5.3651 21.3467 6.70287 23.3534 8.78732 24.9401C9.75176 25.6867 10.8251 26.2623 12.0073 26.6667C13.1895 27.0712 14.4029 27.2734 15.6473 27.2734C17.2962 27.2734 18.8362 26.9467 20.2673 26.2934C21.7295 25.609 23.0207 24.6601 24.1407 23.4467V20.3201H19.8473V16.1201H28.294V24.9867C27.3295 26.3556 26.2562 27.4756 25.074 28.3467Z" fill="#5FA03C"/>
<path d="M43.6185 12.4801C42.8719 12.1378 42.203 11.9667 41.6119 11.9667C40.3674 11.9667 39.3407 12.4023 38.5319 13.2734C37.6607 14.2067 37.2252 15.2801 37.2252 16.4934V31.3334H33.2119V16.4934C33.2119 14.8134 33.6319 13.2734 34.4719 11.8734C35.343 10.4734 36.5252 9.38451 38.0185 8.60674C39.1385 8.07785 40.3363 7.8134 41.6119 7.8134C42.6385 7.8134 43.6185 8.00007 44.5519 8.3734C45.4852 8.74674 46.4652 9.3534 47.4919 10.1934L43.6185 12.4801ZM59.0951 31.5667C57.5084 31.5667 55.9995 31.2556 54.5684 30.6334C53.1373 30.0112 51.8773 29.1556 50.7884 28.0667C49.6995 26.9778 48.844 25.7178 48.2217 24.2867C47.5995 22.8556 47.2884 21.3467 47.2884 19.7601C47.2884 18.1423 47.5995 16.6023 48.2217 15.1401C48.844 13.6778 49.6995 12.4023 50.7884 11.3134C51.8773 10.2245 53.1373 9.38451 54.5684 8.7934C55.9995 8.17118 57.5084 7.86007 59.0951 7.86007C60.7129 7.86007 62.2529 8.17118 63.7151 8.7934C65.1773 9.38451 66.4529 10.2245 67.5417 11.3134C68.6306 12.4023 69.4706 13.6778 70.0617 15.1401C70.684 16.6023 70.9951 18.1423 70.9951 19.7601C70.9951 21.3467 70.684 22.8556 70.0617 24.2867C69.4706 25.7178 68.6306 26.9778 67.5417 28.0667C66.4529 29.1556 65.1773 30.0112 63.7151 30.6334C62.2529 31.2556 60.7129 31.5667 59.0951 31.5667ZM59.0951 12.0134C57.0106 12.0134 55.2217 12.7601 53.7284 14.2534C53.0129 14.969 52.4529 15.809 52.0484 16.7734C51.644 17.7378 51.4417 18.7334 51.4417 19.7601C51.4417 20.7867 51.644 21.7667 52.0484 22.7001C52.4529 23.6334 53.0129 24.4578 53.7284 25.1734C54.444 25.889 55.2529 26.449 56.1551 26.8534C57.0884 27.2578 58.0684 27.4601 59.0951 27.4601C60.1217 27.4601 61.1173 27.2578 62.0817 26.8534C63.0462 26.449 63.8706 25.889 64.5551 25.1734C65.2395 24.4578 65.784 23.6334 66.1884 22.7001C66.5929 21.7667 66.7951 20.7867 66.7951 19.7601C66.7951 18.7334 66.5929 17.7378 66.1884 16.7734C65.784 15.809 65.2395 14.969 64.5551 14.2534C63.8706 13.5378 63.0462 12.9934 62.0817 12.6201C61.1484 12.2156 60.1529 12.0134 59.0951 12.0134ZM85.7119 31.5667C84.1252 31.5667 82.6163 31.2712 81.1852 30.6801C79.7852 30.0578 78.5407 29.2023 77.4519 28.1134C76.3941 27.0556 75.5541 25.8112 74.9319 24.3801C74.3407 22.9178 74.0452 21.3934 74.0452 19.8067C74.0452 18.2201 74.3407 16.7112 74.9319 15.2801C75.5541 13.8178 76.3941 12.5578 77.4519 11.5001C78.5407 10.4112 79.7852 9.57118 81.1852 8.98007C82.6163 8.35785 84.1252 8.04674 85.7119 8.04674C89.383 8.04674 92.4941 9.60229 95.0452 12.7134L91.4052 14.8134C89.7874 13.1023 87.8896 12.2467 85.7119 12.2467C84.6852 12.2467 83.7052 12.449 82.7719 12.8534C81.8696 13.2267 81.0763 13.7556 80.3919 14.4401C79.7074 15.1245 79.163 15.9334 78.7585 16.8667C78.3541 17.8001 78.1519 18.7801 78.1519 19.8067C78.1519 20.8334 78.3541 21.8134 78.7585 22.7467C79.163 23.6801 79.7074 24.489 80.3919 25.1734C81.0763 25.8578 81.8696 26.4023 82.7719 26.8067C83.7052 27.1801 84.6852 27.3667 85.7119 27.3667C87.8896 27.3667 89.7874 26.5112 91.4052 24.8001L95.0452 26.9001C92.4941 30.0112 89.383 31.5667 85.7119 31.5667ZM102.092 21.4401C102.092 22.1867 102.356 22.9645 102.885 23.7734C103.445 24.5823 104.083 25.2667 104.799 25.8267C106.105 26.8534 107.63 27.3667 109.372 27.3667C112.141 27.3667 114.396 26.029 116.139 23.3534L119.685 25.4534C118.472 27.4134 116.979 28.9223 115.205 29.9801C113.432 31.0378 111.487 31.5667 109.372 31.5667C107.785 31.5667 106.276 31.2712 104.845 30.6801C103.414 30.0578 102.154 29.2023 101.065 28.1134C99.9763 27.0245 99.1207 25.7645 98.4985 24.3334C97.9074 22.9023 97.6119 21.3934 97.6119 19.8067C97.6119 18.2201 97.9074 16.7112 98.4985 15.2801C99.1207 13.8178 99.9763 12.5423 101.065 11.4534C102.123 10.3645 103.367 9.52451 104.799 8.9334C106.261 8.34229 107.785 8.04674 109.372 8.04674C110.959 8.04674 112.467 8.34229 113.899 8.9334C115.361 9.52451 116.621 10.3645 117.679 11.4534C119.981 13.8178 121.132 16.5556 121.132 19.6667C121.132 20.2267 121.085 20.8178 120.992 21.4401H102.092ZM109.372 11.8734C108.096 11.8734 106.899 12.1534 105.779 12.7134C104.659 13.2734 103.756 14.0201 103.072 14.9534C102.419 15.8556 102.092 16.8201 102.092 17.8467H116.652C116.652 16.8201 116.31 15.8556 115.625 14.9534C114.972 14.0201 114.085 13.2734 112.965 12.7134C111.845 12.1534 110.647 11.8734 109.372 11.8734ZM135.971 12.4801C135.224 12.1378 134.556 11.9667 133.964 11.9667C132.72 11.9667 131.693 12.4023 130.884 13.2734C130.013 14.2067 129.578 15.2801 129.578 16.4934V31.3334H125.564V16.4934C125.564 14.8134 125.984 13.2734 126.824 11.8734C127.696 10.4734 128.878 9.38451 130.371 8.60674C131.491 8.07785 132.689 7.8134 133.964 7.8134C134.991 7.8134 135.971 8.00007 136.904 8.3734C137.838 8.74674 138.818 9.3534 139.844 10.1934L135.971 12.4801Z" fill="black"/>
<path d="M153.96 41.2734C152.187 41.2734 150.538 40.8223 149.014 39.9201C147.52 39.0178 146.214 37.7112 145.094 36.0001L148.734 33.9001C149.387 34.9267 150.165 35.7045 151.067 36.2334C151.969 36.7934 152.934 37.0734 153.96 37.0734C155.609 37.0734 157.04 36.4667 158.254 35.2534C158.814 34.6934 159.234 34.0401 159.514 33.2934C159.825 32.5467 159.98 31.7534 159.98 30.9134V29.2801C159.265 30.0267 158.363 30.6334 157.274 31.1001C156.185 31.5356 155.08 31.7534 153.96 31.7534C152.592 31.7534 151.3 31.5045 150.087 31.0067C148.874 30.4778 147.8 29.7467 146.867 28.8134C145.903 27.8801 145.156 26.8067 144.627 25.5934C144.098 24.349 143.834 23.0423 143.834 21.6734V8.00007H147.94V21.3934C147.94 22.4823 148.205 23.509 148.734 24.4734C149.294 25.4067 150.025 26.1534 150.927 26.7134C151.86 27.2734 152.872 27.5534 153.96 27.5534C155.049 27.5534 156.06 27.289 156.994 26.7601C157.927 26.2001 158.658 25.4534 159.187 24.5201C159.716 23.5556 159.98 22.5134 159.98 21.3934V8.00007H164.087V30.9134C164.087 32.3134 163.823 33.6512 163.294 34.9267C162.796 36.2023 162.08 37.3067 161.147 38.2401C160.183 39.2045 159.078 39.9512 157.834 40.4801C156.62 41.009 155.329 41.2734 153.96 41.2734ZM171.153 4.64007C170.562 4.64007 170.049 4.43785 169.613 4.0334C169.209 3.59785 169.006 3.08451 169.006 2.4934C169.006 1.90229 169.209 1.40451 169.613 1.00007C170.049 0.564513 170.562 0.346735 171.153 0.346735C171.744 0.346735 172.242 0.564513 172.646 1.00007C173.082 1.40451 173.3 1.90229 173.3 2.4934C173.3 3.08451 173.082 3.59785 172.646 4.0334C172.242 4.43785 171.744 4.64007 171.153 4.64007ZM169.24 31.3334V8.00007H173.16V31.3334H169.24ZM188.145 31.5667C186.558 31.5667 185.049 31.2556 183.618 30.6334C182.187 30.0112 180.927 29.1556 179.838 28.0667C178.749 26.9778 177.894 25.7178 177.271 24.2867C176.649 22.8556 176.338 21.3467 176.338 19.7601C176.338 18.1423 176.649 16.6023 177.271 15.1401C177.894 13.6778 178.749 12.4023 179.838 11.3134C180.927 10.2245 182.187 9.38451 183.618 8.7934C185.049 8.17118 186.558 7.86007 188.145 7.86007C189.763 7.86007 191.303 8.17118 192.765 8.7934C194.227 9.38451 195.503 10.2245 196.591 11.3134C197.68 12.4023 198.52 13.6778 199.111 15.1401C199.734 16.6023 200.045 18.1423 200.045 19.7601C200.045 21.3467 199.734 22.8556 199.111 24.2867C198.52 25.7178 197.68 26.9778 196.591 28.0667C195.503 29.1556 194.227 30.0112 192.765 30.6334C191.303 31.2556 189.763 31.5667 188.145 31.5667ZM188.145 12.0134C186.06 12.0134 184.271 12.7601 182.778 14.2534C182.063 14.969 181.503 15.809 181.098 16.7734C180.694 17.7378 180.491 18.7334 180.491 19.7601C180.491 20.7867 180.694 21.7667 181.098 22.7001C181.503 23.6334 182.063 24.4578 182.778 25.1734C183.494 25.889 184.303 26.449 185.205 26.8534C186.138 27.2578 187.118 27.4601 188.145 27.4601C189.171 27.4601 190.167 27.2578 191.131 26.8534C192.096 26.449 192.92 25.889 193.605 25.1734C194.289 24.4578 194.834 23.6334 195.238 22.7001C195.643 21.7667 195.845 20.7867 195.845 19.7601C195.845 18.7334 195.643 17.7378 195.238 16.7734C194.834 15.809 194.289 14.969 193.605 14.2534C192.92 13.5378 192.096 12.9934 191.131 12.6201C190.198 12.2156 189.203 12.0134 188.145 12.0134Z" fill="#F28505"/>
</svg>
