<svg width="28" height="40" viewBox="0 0 28 40" fill="none" xmlns="http://www.w3.org/2000/svg">
<path d="M14.3338 8.97238C15.623 8.97238 16.8595 9.48453 17.7711 10.3962C18.6827 11.3078 19.1949 12.5442 19.1949 13.8335C19.1949 14.4719 19.0691 15.104 18.8249 15.6938C18.5806 16.2835 18.2225 16.8194 17.7711 17.2708C17.3197 17.7222 16.7838 18.0803 16.194 18.3246C15.6043 18.5689 14.9721 18.6946 14.3338 18.6946C13.0445 18.6946 11.8081 18.1825 10.8964 17.2708C9.98481 16.3592 9.47266 15.1227 9.47266 13.8335C9.47266 12.5442 9.98481 11.3078 10.8964 10.3962C11.8081 9.48453 13.0445 8.97238 14.3338 8.97238ZM14.3338 0.222382C17.9437 0.222382 21.4057 1.65641 23.9583 4.20898C26.5109 6.76156 27.9449 10.2236 27.9449 13.8335C27.9449 24.0418 14.3338 39.1113 14.3338 39.1113C14.3338 39.1113 0.722656 24.0418 0.722656 13.8335C0.722656 10.2236 2.15668 6.76156 4.70926 4.20898C7.26184 1.65641 10.7239 0.222382 14.3338 0.222382ZM14.3338 4.11127C11.7553 4.11127 9.28239 5.13557 7.45912 6.95884C5.63585 8.78211 4.61155 11.255 4.61155 13.8335C4.61155 15.7779 4.61155 19.6668 14.3338 32.7141C24.056 19.6668 24.056 15.7779 24.056 13.8335C24.056 11.255 23.0317 8.78211 21.2084 6.95884C19.3851 5.13557 16.9123 4.11127 14.3338 4.11127Z" fill="#ACACAC"/>
</svg>
